<svg xmlns="http://www.w3.org/2000/svg" xmlns:xlink="http://www.w3.org/1999/xlink" width="500" zoomAndPan="magnify" viewBox="0 0 375 374.999991" height="500" preserveAspectRatio="xMidYMid meet" version="1.2"><defs><clipPath id="1b108594f2"><path d="M 11 41 L 368 41 L 368 316.5 L 11 316.5 Z M 11 41 "/></clipPath><clipPath id="175881b738"><rect x="0" width="231" y="0" height="167"/></clipPath></defs><g id="56f36d6f9b"><g clip-rule="nonzero" clip-path="url(#1b108594f2)"><path style=" stroke:none;fill-rule:nonzero;fill:#5e17eb;fill-opacity:1;" d="M 258.398438 316.078125 C 256.714844 310.902344 256.660156 304.695312 255.507812 299.296875 C 254.621094 294.863281 253.367188 290.535156 251.746094 286.3125 C 249.257812 280.09375 245.453125 274.402344 239.367188 271.261719 C 226.996094 264.847656 210.285156 268.117188 197.242188 270.054688 C 157.007812 276.039062 111.464844 281.214844 72.300781 265.890625 C -5.09375 235.609375 -9.160156 114.566406 59.914062 72.882812 C 116.003906 39.039062 183.113281 37.636719 246.230469 46.335938 C 278.472656 50.78125 314.089844 57.90625 338.855469 80.664062 C 368.597656 108 370.476562 151.554688 365.445312 188.90625 C 360.320312 226.964844 330.058594 249.625 293.753906 257.164062 C 288.46875 258.265625 288.234375 265.953125 287.078125 270.144531 C 282.664062 286.164062 276.753906 310.699219 258.449219 316.230469 Z M 258.398438 316.078125 "/></g><g transform="matrix(1,0,0,1,65,93)"><g clip-path="url(#175881b738)"><g style="fill:#fdb811;fill-opacity:0.4;"><g transform="translate(1.820227, 68.377489)"><path style="stroke:none" d="M 32.703125 -65.671875 C 37.285156 -65.671875 41.566406 -64.8125 45.546875 -63.09375 C 49.535156 -61.382812 53.054688 -59.015625 56.109375 -55.984375 C 59.171875 -52.953125 61.5625 -49.429688 63.28125 -45.421875 C 65 -41.410156 65.859375 -37.140625 65.859375 -32.609375 C 65.859375 -31.441406 65.8125 -30.289062 65.71875 -29.15625 C 65.625 -28.03125 65.425781 -26.851562 65.125 -25.625 L 57.671875 -30.21875 C 57.554688 -30.34375 57.484375 -30.375 57.453125 -30.3125 C 57.421875 -30.25 57.40625 -30.21875 57.40625 -30.21875 L 63 -24.703125 C 64.957031 -22.378906 66.132812 -19.960938 66.53125 -17.453125 C 66.9375 -14.941406 66.753906 -12.519531 65.984375 -10.1875 C 65.222656 -7.863281 64 -5.84375 62.3125 -4.125 C 60.632812 -2.414062 58.691406 -1.160156 56.484375 -0.359375 C 54.273438 0.429688 51.945312 0.550781 49.5 0 C 47.050781 -0.550781 44.664062 -1.929688 42.34375 -4.140625 L 37.75 -8.640625 C 37.6875 -8.753906 37.578125 -8.765625 37.421875 -8.671875 C 37.273438 -8.585938 37.226562 -8.421875 37.28125 -8.171875 L 41.875 -1.015625 C 40.40625 -0.523438 38.90625 -0.203125 37.375 -0.046875 C 35.84375 0.109375 34.285156 0.1875 32.703125 0.1875 C 28.171875 0.1875 23.910156 -0.65625 19.921875 -2.34375 C 15.941406 -4.03125 12.4375 -6.375 9.40625 -9.375 C 6.382812 -12.375 4.015625 -15.847656 2.296875 -19.796875 C 0.578125 -23.742188 -0.28125 -28.015625 -0.28125 -32.609375 C -0.28125 -37.140625 0.578125 -41.410156 2.296875 -45.421875 C 4.015625 -49.429688 6.382812 -52.953125 9.40625 -55.984375 C 12.4375 -59.015625 15.941406 -61.382812 19.921875 -63.09375 C 23.910156 -64.8125 28.171875 -65.671875 32.703125 -65.671875 Z M 32.703125 -36.1875 C 31.722656 -36.1875 30.878906 -35.816406 30.171875 -35.078125 C 29.460938 -34.347656 29.109375 -33.523438 29.109375 -32.609375 C 29.109375 -31.628906 29.460938 -30.816406 30.171875 -30.171875 C 30.878906 -29.523438 31.722656 -29.203125 32.703125 -29.203125 C 33.734375 -29.203125 34.601562 -29.523438 35.3125 -30.171875 C 36.019531 -30.816406 36.375 -31.628906 36.375 -32.609375 C 36.375 -33.523438 36.019531 -34.347656 35.3125 -35.078125 C 34.601562 -35.816406 33.734375 -36.1875 32.703125 -36.1875 Z M 32.703125 -36.1875 "/></g></g><g style="fill:#fdb811;fill-opacity:0.4;"><g transform="translate(70.150943, 68.377489)"><path style="stroke:none" d="M 31.3125 0.640625 C 27.03125 0.640625 22.988281 -0.179688 19.1875 -1.828125 C 15.394531 -3.484375 12.0625 -5.75 9.1875 -8.625 C 6.3125 -11.507812 4.0625 -14.832031 2.4375 -18.59375 C 0.8125 -22.363281 0 -26.390625 0 -30.671875 L 0 -50.421875 C 0 -53.117188 0.65625 -55.582031 1.96875 -57.8125 C 3.289062 -60.050781 5.082031 -61.84375 7.34375 -63.1875 C 9.613281 -64.53125 12.09375 -65.203125 14.78125 -65.203125 C 17.476562 -65.203125 19.925781 -64.53125 22.125 -63.1875 C 24.332031 -61.84375 26.078125 -60.050781 27.359375 -57.8125 C 28.648438 -55.582031 29.296875 -53.117188 29.296875 -50.421875 L 29.296875 -32.421875 C 29.296875 -31.867188 29.476562 -31.347656 29.84375 -30.859375 C 30.21875 -30.367188 30.707031 -30.125 31.3125 -30.125 C 31.863281 -30.125 32.335938 -30.367188 32.734375 -30.859375 C 33.140625 -31.347656 33.34375 -31.867188 33.34375 -32.421875 L 33.34375 -50.421875 C 33.34375 -53.117188 34 -55.582031 35.3125 -57.8125 C 36.625 -60.050781 38.410156 -61.84375 40.671875 -63.1875 C 42.941406 -64.53125 45.425781 -65.203125 48.125 -65.203125 C 50.757812 -65.203125 53.160156 -64.53125 55.328125 -63.1875 C 57.503906 -61.84375 59.265625 -60.050781 60.609375 -57.8125 C 61.960938 -55.582031 62.640625 -53.117188 62.640625 -50.421875 L 62.640625 -30.671875 C 62.640625 -26.390625 61.8125 -22.363281 60.15625 -18.59375 C 58.5 -14.832031 56.234375 -11.507812 53.359375 -8.625 C 50.484375 -5.75 47.160156 -3.484375 43.390625 -1.828125 C 39.628906 -0.179688 35.601562 0.640625 31.3125 0.640625 Z M 31.3125 0.640625 "/></g></g><g style="fill:#fdb811;fill-opacity:0.4;"><g transform="translate(135.359023, 68.377489)"><path style="stroke:none" d="M 14.515625 -0.09375 C 11.816406 -0.09375 9.363281 -0.765625 7.15625 -2.109375 C 4.957031 -3.460938 3.210938 -5.253906 1.921875 -7.484375 C 0.640625 -9.722656 0 -12.15625 0 -14.78125 L 0 -50.609375 C 0 -53.296875 0.640625 -55.726562 1.921875 -57.90625 C 3.210938 -60.082031 4.957031 -61.8125 7.15625 -63.09375 C 9.363281 -64.382812 11.816406 -65.03125 14.515625 -65.03125 C 17.328125 -65.03125 19.832031 -64.382812 22.03125 -63.09375 C 24.238281 -61.8125 26 -60.082031 27.3125 -57.90625 C 28.632812 -55.726562 29.296875 -53.296875 29.296875 -50.609375 L 29.296875 -14.78125 C 29.296875 -12.15625 28.632812 -9.722656 27.3125 -7.484375 C 26 -5.253906 24.238281 -3.460938 22.03125 -2.109375 C 19.832031 -0.765625 17.328125 -0.09375 14.515625 -0.09375 Z M 14.515625 -0.09375 "/></g></g><g style="fill:#fdb811;fill-opacity:0.4;"><g transform="translate(167.595689, 68.377489)"><path style="stroke:none" d="M 44.453125 -65.296875 C 48.066406 -65.296875 51.019531 -64.40625 53.3125 -62.625 C 55.613281 -60.851562 57.238281 -58.617188 58.1875 -55.921875 C 59.132812 -53.234375 59.332031 -50.453125 58.78125 -47.578125 C 58.226562 -44.703125 56.878906 -42.191406 54.734375 -40.046875 C 52.285156 -37.535156 49.742188 -34.976562 47.109375 -32.375 C 44.484375 -29.769531 41.820312 -27.125 39.125 -24.4375 C 39 -24.1875 39.03125 -23.9375 39.21875 -23.6875 C 39.40625 -23.445312 39.617188 -23.453125 39.859375 -23.703125 L 47.9375 -29.015625 C 51.25 -28.222656 53.972656 -26.570312 56.109375 -24.0625 C 58.253906 -21.550781 59.328125 -18.398438 59.328125 -14.609375 C 59.328125 -12.148438 58.664062 -9.816406 57.34375 -7.609375 C 56.03125 -5.410156 54.269531 -3.59375 52.0625 -2.15625 C 49.863281 -0.71875 47.421875 0 44.734375 0 L 14.234375 0 C 11.535156 0 9.050781 -0.65625 6.78125 -1.96875 C 4.519531 -3.289062 2.71875 -5.050781 1.375 -7.25 C 0.03125 -9.457031 -0.640625 -11.910156 -0.640625 -14.609375 C -0.640625 -16.929688 -0.148438 -19.023438 0.828125 -20.890625 C 1.804688 -22.765625 3.0625 -24.375 4.59375 -25.71875 L 19.203125 -40.59375 C 19.503906 -40.84375 19.53125 -41.101562 19.28125 -41.375 C 19.039062 -41.644531 18.765625 -41.722656 18.453125 -41.609375 L 10.921875 -36.28125 C 7.679688 -37.070312 4.972656 -38.785156 2.796875 -41.421875 C 0.628906 -44.054688 -0.453125 -47.148438 -0.453125 -50.703125 C -0.453125 -53.390625 0.203125 -55.835938 1.515625 -58.046875 C 2.828125 -60.253906 4.597656 -62.015625 6.828125 -63.328125 C 9.066406 -64.640625 11.535156 -65.296875 14.234375 -65.296875 Z M 44.453125 -65.296875 "/></g></g><g style="fill:#ffc516;fill-opacity:1;"><g transform="translate(1.820227, 68.377489)"><path style="stroke:none" d="M 32.703125 -65.671875 C 37.285156 -65.671875 41.566406 -64.8125 45.546875 -63.09375 C 49.535156 -61.382812 53.054688 -59.015625 56.109375 -55.984375 C 59.171875 -52.953125 61.5625 -49.429688 63.28125 -45.421875 C 65 -41.410156 65.859375 -37.140625 65.859375 -32.609375 C 65.859375 -31.441406 65.8125 -30.289062 65.71875 -29.15625 C 65.625 -28.03125 65.425781 -26.851562 65.125 -25.625 L 57.671875 -30.21875 C 57.554688 -30.34375 57.484375 -30.375 57.453125 -30.3125 C 57.421875 -30.25 57.40625 -30.21875 57.40625 -30.21875 L 63 -24.703125 C 64.957031 -22.378906 66.132812 -19.960938 66.53125 -17.453125 C 66.9375 -14.941406 66.753906 -12.519531 65.984375 -10.1875 C 65.222656 -7.863281 64 -5.84375 62.3125 -4.125 C 60.632812 -2.414062 58.691406 -1.160156 56.484375 -0.359375 C 54.273438 0.429688 51.945312 0.550781 49.5 0 C 47.050781 -0.550781 44.664062 -1.929688 42.34375 -4.140625 L 37.75 -8.640625 C 37.6875 -8.753906 37.578125 -8.765625 37.421875 -8.671875 C 37.273438 -8.585938 37.226562 -8.421875 37.28125 -8.171875 L 41.875 -1.015625 C 40.40625 -0.523438 38.90625 -0.203125 37.375 -0.046875 C 35.84375 0.109375 34.285156 0.1875 32.703125 0.1875 C 28.171875 0.1875 23.910156 -0.65625 19.921875 -2.34375 C 15.941406 -4.03125 12.4375 -6.375 9.40625 -9.375 C 6.382812 -12.375 4.015625 -15.847656 2.296875 -19.796875 C 0.578125 -23.742188 -0.28125 -28.015625 -0.28125 -32.609375 C -0.28125 -37.140625 0.578125 -41.410156 2.296875 -45.421875 C 4.015625 -49.429688 6.382812 -52.953125 9.40625 -55.984375 C 12.4375 -59.015625 15.941406 -61.382812 19.921875 -63.09375 C 23.910156 -64.8125 28.171875 -65.671875 32.703125 -65.671875 Z M 32.703125 -36.1875 C 31.722656 -36.1875 30.878906 -35.816406 30.171875 -35.078125 C 29.460938 -34.347656 29.109375 -33.523438 29.109375 -32.609375 C 29.109375 -31.628906 29.460938 -30.816406 30.171875 -30.171875 C 30.878906 -29.523438 31.722656 -29.203125 32.703125 -29.203125 C 33.734375 -29.203125 34.601562 -29.523438 35.3125 -30.171875 C 36.019531 -30.816406 36.375 -31.628906 36.375 -32.609375 C 36.375 -33.523438 36.019531 -34.347656 35.3125 -35.078125 C 34.601562 -35.816406 33.734375 -36.1875 32.703125 -36.1875 Z M 32.703125 -36.1875 "/></g></g><g style="fill:#ffc516;fill-opacity:1;"><g transform="translate(70.150943, 68.377489)"><path style="stroke:none" d="M 31.3125 0.640625 C 27.03125 0.640625 22.988281 -0.179688 19.1875 -1.828125 C 15.394531 -3.484375 12.0625 -5.75 9.1875 -8.625 C 6.3125 -11.507812 4.0625 -14.832031 2.4375 -18.59375 C 0.8125 -22.363281 0 -26.390625 0 -30.671875 L 0 -50.421875 C 0 -53.117188 0.65625 -55.582031 1.96875 -57.8125 C 3.289062 -60.050781 5.082031 -61.84375 7.34375 -63.1875 C 9.613281 -64.53125 12.09375 -65.203125 14.78125 -65.203125 C 17.476562 -65.203125 19.925781 -64.53125 22.125 -63.1875 C 24.332031 -61.84375 26.078125 -60.050781 27.359375 -57.8125 C 28.648438 -55.582031 29.296875 -53.117188 29.296875 -50.421875 L 29.296875 -32.421875 C 29.296875 -31.867188 29.476562 -31.347656 29.84375 -30.859375 C 30.21875 -30.367188 30.707031 -30.125 31.3125 -30.125 C 31.863281 -30.125 32.335938 -30.367188 32.734375 -30.859375 C 33.140625 -31.347656 33.34375 -31.867188 33.34375 -32.421875 L 33.34375 -50.421875 C 33.34375 -53.117188 34 -55.582031 35.3125 -57.8125 C 36.625 -60.050781 38.410156 -61.84375 40.671875 -63.1875 C 42.941406 -64.53125 45.425781 -65.203125 48.125 -65.203125 C 50.757812 -65.203125 53.160156 -64.53125 55.328125 -63.1875 C 57.503906 -61.84375 59.265625 -60.050781 60.609375 -57.8125 C 61.960938 -55.582031 62.640625 -53.117188 62.640625 -50.421875 L 62.640625 -30.671875 C 62.640625 -26.390625 61.8125 -22.363281 60.15625 -18.59375 C 58.5 -14.832031 56.234375 -11.507812 53.359375 -8.625 C 50.484375 -5.75 47.160156 -3.484375 43.390625 -1.828125 C 39.628906 -0.179688 35.601562 0.640625 31.3125 0.640625 Z M 31.3125 0.640625 "/></g></g><g style="fill:#ffc516;fill-opacity:1;"><g transform="translate(135.359023, 68.377489)"><path style="stroke:none" d="M 14.515625 -0.09375 C 11.816406 -0.09375 9.363281 -0.765625 7.15625 -2.109375 C 4.957031 -3.460938 3.210938 -5.253906 1.921875 -7.484375 C 0.640625 -9.722656 0 -12.15625 0 -14.78125 L 0 -50.609375 C 0 -53.296875 0.640625 -55.726562 1.921875 -57.90625 C 3.210938 -60.082031 4.957031 -61.8125 7.15625 -63.09375 C 9.363281 -64.382812 11.816406 -65.03125 14.515625 -65.03125 C 17.328125 -65.03125 19.832031 -64.382812 22.03125 -63.09375 C 24.238281 -61.8125 26 -60.082031 27.3125 -57.90625 C 28.632812 -55.726562 29.296875 -53.296875 29.296875 -50.609375 L 29.296875 -14.78125 C 29.296875 -12.15625 28.632812 -9.722656 27.3125 -7.484375 C 26 -5.253906 24.238281 -3.460938 22.03125 -2.109375 C 19.832031 -0.765625 17.328125 -0.09375 14.515625 -0.09375 Z M 14.515625 -0.09375 "/></g></g><g style="fill:#ffc516;fill-opacity:1;"><g transform="translate(167.595689, 68.377489)"><path style="stroke:none" d="M 44.453125 -65.296875 C 48.066406 -65.296875 51.019531 -64.40625 53.3125 -62.625 C 55.613281 -60.851562 57.238281 -58.617188 58.1875 -55.921875 C 59.132812 -53.234375 59.332031 -50.453125 58.78125 -47.578125 C 58.226562 -44.703125 56.878906 -42.191406 54.734375 -40.046875 C 52.285156 -37.535156 49.742188 -34.976562 47.109375 -32.375 C 44.484375 -29.769531 41.820312 -27.125 39.125 -24.4375 C 39 -24.1875 39.03125 -23.9375 39.21875 -23.6875 C 39.40625 -23.445312 39.617188 -23.453125 39.859375 -23.703125 L 47.9375 -29.015625 C 51.25 -28.222656 53.972656 -26.570312 56.109375 -24.0625 C 58.253906 -21.550781 59.328125 -18.398438 59.328125 -14.609375 C 59.328125 -12.148438 58.664062 -9.816406 57.34375 -7.609375 C 56.03125 -5.410156 54.269531 -3.59375 52.0625 -2.15625 C 49.863281 -0.71875 47.421875 0 44.734375 0 L 14.234375 0 C 11.535156 0 9.050781 -0.65625 6.78125 -1.96875 C 4.519531 -3.289062 2.71875 -5.050781 1.375 -7.25 C 0.03125 -9.457031 -0.640625 -11.910156 -0.640625 -14.609375 C -0.640625 -16.929688 -0.148438 -19.023438 0.828125 -20.890625 C 1.804688 -22.765625 3.0625 -24.375 4.59375 -25.71875 L 19.203125 -40.59375 C 19.503906 -40.84375 19.53125 -41.101562 19.28125 -41.375 C 19.039062 -41.644531 18.765625 -41.722656 18.453125 -41.609375 L 10.921875 -36.28125 C 7.679688 -37.070312 4.972656 -38.785156 2.796875 -41.421875 C 0.628906 -44.054688 -0.453125 -47.148438 -0.453125 -50.703125 C -0.453125 -53.390625 0.203125 -55.835938 1.515625 -58.046875 C 2.828125 -60.253906 4.597656 -62.015625 6.828125 -63.328125 C 9.066406 -64.640625 11.535156 -65.296875 14.234375 -65.296875 Z M 44.453125 -65.296875 "/></g></g><g style="fill:#fdb811;fill-opacity:0.4;"><g transform="translate(5.074818, 142.376612)"><path style="stroke:none" d="M 43.171875 -65.203125 C 45.921875 -65.203125 48.410156 -64.53125 50.640625 -63.1875 C 52.878906 -61.84375 54.65625 -60.050781 55.96875 -57.8125 C 57.289062 -55.582031 57.953125 -53.117188 57.953125 -50.421875 C 57.953125 -47.785156 57.304688 -45.378906 56.015625 -43.203125 C 54.734375 -41.035156 53.003906 -39.273438 50.828125 -37.921875 C 48.660156 -36.578125 46.195312 -35.90625 43.4375 -35.90625 L 43.53125 -14.515625 C 43.53125 -11.816406 42.859375 -9.332031 41.515625 -7.0625 C 40.171875 -4.800781 38.378906 -2.992188 36.140625 -1.640625 C 33.898438 -0.296875 31.4375 0.375 28.75 0.375 C 26.113281 0.375 23.691406 -0.296875 21.484375 -1.640625 C 19.285156 -2.992188 17.523438 -4.800781 16.203125 -7.0625 C 14.890625 -9.332031 14.234375 -11.816406 14.234375 -14.515625 L 14.234375 -35.90625 C 11.535156 -35.90625 9.082031 -36.578125 6.875 -37.921875 C 4.675781 -39.273438 2.929688 -41.035156 1.640625 -43.203125 C 0.359375 -45.378906 -0.28125 -47.785156 -0.28125 -50.421875 C -0.28125 -53.117188 0.359375 -55.582031 1.640625 -57.8125 C 2.929688 -60.050781 4.675781 -61.84375 6.875 -63.1875 C 9.082031 -64.53125 11.535156 -65.203125 14.234375 -65.203125 Z M 43.171875 -65.203125 "/></g></g><g style="fill:#fdb811;fill-opacity:0.4;"><g transform="translate(64.404988, 142.376612)"><path style="stroke:none" d="M 14.515625 -0.09375 C 11.816406 -0.09375 9.363281 -0.765625 7.15625 -2.109375 C 4.957031 -3.460938 3.210938 -5.253906 1.921875 -7.484375 C 0.640625 -9.722656 0 -12.15625 0 -14.78125 L 0 -50.609375 C 0 -53.296875 0.640625 -55.726562 1.921875 -57.90625 C 3.210938 -60.082031 4.957031 -61.8125 7.15625 -63.09375 C 9.363281 -64.382812 11.816406 -65.03125 14.515625 -65.03125 C 17.328125 -65.03125 19.832031 -64.382812 22.03125 -63.09375 C 24.238281 -61.8125 26 -60.082031 27.3125 -57.90625 C 28.632812 -55.726562 29.296875 -53.296875 29.296875 -50.609375 L 29.296875 -14.78125 C 29.296875 -12.15625 28.632812 -9.722656 27.3125 -7.484375 C 26 -5.253906 24.238281 -3.460938 22.03125 -2.109375 C 19.832031 -0.765625 17.328125 -0.09375 14.515625 -0.09375 Z M 14.515625 -0.09375 "/></g></g><g style="fill:#fdb811;fill-opacity:0.4;"><g transform="translate(96.641654, 142.376612)"><path style="stroke:none" d="M 48.125 -19.5625 C 46.226562 -17.300781 44.175781 -15.3125 41.96875 -13.59375 C 39.769531 -11.875 37.597656 -11.046875 35.453125 -11.109375 C 33.367188 -11.109375 31.269531 -11.953125 29.15625 -13.640625 C 27.039062 -15.328125 25.003906 -17.300781 23.046875 -19.5625 L 20.203125 -23.046875 C 20.023438 -23.234375 19.828125 -23.28125 19.609375 -23.1875 C 19.390625 -23.09375 19.375 -22.925781 19.5625 -22.6875 L 28.46875 -10.46875 C 28.039062 -6.738281 26.476562 -3.96875 23.78125 -2.15625 C 21.09375 -0.351562 17.972656 0.546875 14.421875 0.546875 C 11.972656 0.546875 9.660156 -0.109375 7.484375 -1.421875 C 5.304688 -2.734375 3.53125 -4.476562 2.15625 -6.65625 C 0.78125 -8.832031 0.09375 -11.238281 0.09375 -13.875 L 0.09375 -50.0625 C 0.09375 -52.75 0.703125 -55.117188 1.921875 -57.171875 C 3.148438 -59.222656 4.742188 -60.875 6.703125 -62.125 C 8.660156 -63.382812 10.800781 -64.148438 13.125 -64.421875 C 15.457031 -64.703125 17.753906 -64.394531 20.015625 -63.5 C 22.285156 -62.613281 24.273438 -61.070312 25.984375 -58.875 L 35.546875 -46.5625 L 45.375 -58.875 C 47.144531 -61.070312 49.144531 -62.613281 51.375 -63.5 C 53.613281 -64.394531 55.894531 -64.703125 58.21875 -64.421875 C 60.550781 -64.148438 62.695312 -63.382812 64.65625 -62.125 C 66.613281 -60.875 68.203125 -59.222656 69.421875 -57.171875 C 70.648438 -55.117188 71.265625 -52.75 71.265625 -50.0625 L 71.265625 -13.875 C 71.265625 -11.238281 70.578125 -8.832031 69.203125 -6.65625 C 67.828125 -4.476562 66.050781 -2.734375 63.875 -1.421875 C 61.695312 -0.109375 59.382812 0.546875 56.9375 0.546875 C 53.382812 0.546875 50.257812 -0.351562 47.5625 -2.15625 C 44.875 -3.96875 43.316406 -6.738281 42.890625 -10.46875 L 51.796875 -22.6875 C 51.921875 -22.875 51.890625 -23.023438 51.703125 -23.140625 C 51.523438 -23.265625 51.34375 -23.234375 51.15625 -23.046875 Z M 48.125 -19.5625 "/></g></g><g style="fill:#fdb811;fill-opacity:0.4;"><g transform="translate(170.666594, 142.376612)"><path style="stroke:none" d="M 0 -50.515625 C 0 -53.265625 0.625 -55.757812 1.875 -58 C 3.132812 -60.238281 4.878906 -62.015625 7.109375 -63.328125 C 9.347656 -64.640625 11.90625 -65.296875 14.78125 -65.296875 L 38.765625 -65.296875 C 41.640625 -65.296875 44.160156 -64.578125 46.328125 -63.140625 C 48.503906 -61.703125 50.171875 -59.832031 51.328125 -57.53125 C 52.492188 -55.238281 53.0625 -52.789062 53.03125 -50.1875 C 53.007812 -47.59375 52.265625 -45.128906 50.796875 -42.796875 C 49.316406 -40.410156 47.503906 -38.742188 45.359375 -37.796875 C 43.222656 -36.847656 40.773438 -36.3125 38.015625 -36.1875 C 37.710938 -36.1875 37.5625 -36.015625 37.5625 -35.671875 C 37.5625 -35.335938 37.710938 -35.113281 38.015625 -35 C 40.523438 -34.6875 42.972656 -34.851562 45.359375 -35.5 C 47.753906 -36.144531 49.867188 -37.414062 51.703125 -39.3125 C 52.929688 -36.613281 53.332031 -33.6875 52.90625 -30.53125 C 52.476562 -27.382812 51.253906 -24.800781 49.234375 -22.78125 C 47.878906 -21.25 46.3125 -20.160156 44.53125 -19.515625 C 42.757812 -18.867188 40.894531 -18.425781 38.9375 -18.1875 C 38.632812 -18.1875 38.484375 -18 38.484375 -17.625 C 38.484375 -17.257812 38.632812 -17.078125 38.9375 -17.078125 C 41.332031 -16.835938 43.660156 -17.019531 45.921875 -17.625 C 48.179688 -18.238281 50.171875 -19.554688 51.890625 -21.578125 C 52.378906 -20.785156 52.726562 -19.898438 52.9375 -18.921875 C 53.15625 -17.941406 53.265625 -16.472656 53.265625 -14.515625 C 53.265625 -13.109375 52.988281 -11.5625 52.4375 -9.875 C 51.882812 -8.1875 51.007812 -6.59375 49.8125 -5.09375 C 48.625 -3.59375 47.125 -2.367188 45.3125 -1.421875 C 43.507812 -0.472656 41.328125 0 38.765625 0 L 14.609375 0 C 11.910156 0 9.441406 -0.65625 7.203125 -1.96875 C 4.972656 -3.289062 3.210938 -5.050781 1.921875 -7.25 C 0.640625 -9.457031 0 -11.878906 0 -14.515625 Z M 0 -50.515625 "/></g></g><g style="fill:#ffffff;fill-opacity:1;"><g transform="translate(5.074818, 142.376612)"><path style="stroke:none" d="M 43.171875 -65.203125 C 45.921875 -65.203125 48.410156 -64.53125 50.640625 -63.1875 C 52.878906 -61.84375 54.65625 -60.050781 55.96875 -57.8125 C 57.289062 -55.582031 57.953125 -53.117188 57.953125 -50.421875 C 57.953125 -47.785156 57.304688 -45.378906 56.015625 -43.203125 C 54.734375 -41.035156 53.003906 -39.273438 50.828125 -37.921875 C 48.660156 -36.578125 46.195312 -35.90625 43.4375 -35.90625 L 43.53125 -14.515625 C 43.53125 -11.816406 42.859375 -9.332031 41.515625 -7.0625 C 40.171875 -4.800781 38.378906 -2.992188 36.140625 -1.640625 C 33.898438 -0.296875 31.4375 0.375 28.75 0.375 C 26.113281 0.375 23.691406 -0.296875 21.484375 -1.640625 C 19.285156 -2.992188 17.523438 -4.800781 16.203125 -7.0625 C 14.890625 -9.332031 14.234375 -11.816406 14.234375 -14.515625 L 14.234375 -35.90625 C 11.535156 -35.90625 9.082031 -36.578125 6.875 -37.921875 C 4.675781 -39.273438 2.929688 -41.035156 1.640625 -43.203125 C 0.359375 -45.378906 -0.28125 -47.785156 -0.28125 -50.421875 C -0.28125 -53.117188 0.359375 -55.582031 1.640625 -57.8125 C 2.929688 -60.050781 4.675781 -61.84375 6.875 -63.1875 C 9.082031 -64.53125 11.535156 -65.203125 14.234375 -65.203125 Z M 43.171875 -65.203125 "/></g></g><g style="fill:#ffffff;fill-opacity:1;"><g transform="translate(64.404988, 142.376612)"><path style="stroke:none" d="M 14.515625 -0.09375 C 11.816406 -0.09375 9.363281 -0.765625 7.15625 -2.109375 C 4.957031 -3.460938 3.210938 -5.253906 1.921875 -7.484375 C 0.640625 -9.722656 0 -12.15625 0 -14.78125 L 0 -50.609375 C 0 -53.296875 0.640625 -55.726562 1.921875 -57.90625 C 3.210938 -60.082031 4.957031 -61.8125 7.15625 -63.09375 C 9.363281 -64.382812 11.816406 -65.03125 14.515625 -65.03125 C 17.328125 -65.03125 19.832031 -64.382812 22.03125 -63.09375 C 24.238281 -61.8125 26 -60.082031 27.3125 -57.90625 C 28.632812 -55.726562 29.296875 -53.296875 29.296875 -50.609375 L 29.296875 -14.78125 C 29.296875 -12.15625 28.632812 -9.722656 27.3125 -7.484375 C 26 -5.253906 24.238281 -3.460938 22.03125 -2.109375 C 19.832031 -0.765625 17.328125 -0.09375 14.515625 -0.09375 Z M 14.515625 -0.09375 "/></g></g><g style="fill:#ffffff;fill-opacity:1;"><g transform="translate(96.641654, 142.376612)"><path style="stroke:none" d="M 48.125 -19.5625 C 46.226562 -17.300781 44.175781 -15.3125 41.96875 -13.59375 C 39.769531 -11.875 37.597656 -11.046875 35.453125 -11.109375 C 33.367188 -11.109375 31.269531 -11.953125 29.15625 -13.640625 C 27.039062 -15.328125 25.003906 -17.300781 23.046875 -19.5625 L 20.203125 -23.046875 C 20.023438 -23.234375 19.828125 -23.28125 19.609375 -23.1875 C 19.390625 -23.09375 19.375 -22.925781 19.5625 -22.6875 L 28.46875 -10.46875 C 28.039062 -6.738281 26.476562 -3.96875 23.78125 -2.15625 C 21.09375 -0.351562 17.972656 0.546875 14.421875 0.546875 C 11.972656 0.546875 9.660156 -0.109375 7.484375 -1.421875 C 5.304688 -2.734375 3.53125 -4.476562 2.15625 -6.65625 C 0.78125 -8.832031 0.09375 -11.238281 0.09375 -13.875 L 0.09375 -50.0625 C 0.09375 -52.75 0.703125 -55.117188 1.921875 -57.171875 C 3.148438 -59.222656 4.742188 -60.875 6.703125 -62.125 C 8.660156 -63.382812 10.800781 -64.148438 13.125 -64.421875 C 15.457031 -64.703125 17.753906 -64.394531 20.015625 -63.5 C 22.285156 -62.613281 24.273438 -61.070312 25.984375 -58.875 L 35.546875 -46.5625 L 45.375 -58.875 C 47.144531 -61.070312 49.144531 -62.613281 51.375 -63.5 C 53.613281 -64.394531 55.894531 -64.703125 58.21875 -64.421875 C 60.550781 -64.148438 62.695312 -63.382812 64.65625 -62.125 C 66.613281 -60.875 68.203125 -59.222656 69.421875 -57.171875 C 70.648438 -55.117188 71.265625 -52.75 71.265625 -50.0625 L 71.265625 -13.875 C 71.265625 -11.238281 70.578125 -8.832031 69.203125 -6.65625 C 67.828125 -4.476562 66.050781 -2.734375 63.875 -1.421875 C 61.695312 -0.109375 59.382812 0.546875 56.9375 0.546875 C 53.382812 0.546875 50.257812 -0.351562 47.5625 -2.15625 C 44.875 -3.96875 43.316406 -6.738281 42.890625 -10.46875 L 51.796875 -22.6875 C 51.921875 -22.875 51.890625 -23.023438 51.703125 -23.140625 C 51.523438 -23.265625 51.34375 -23.234375 51.15625 -23.046875 Z M 48.125 -19.5625 "/></g></g><g style="fill:#ffffff;fill-opacity:1;"><g transform="translate(170.666594, 142.376612)"><path style="stroke:none" d="M 0 -50.515625 C 0 -53.265625 0.625 -55.757812 1.875 -58 C 3.132812 -60.238281 4.878906 -62.015625 7.109375 -63.328125 C 9.347656 -64.640625 11.90625 -65.296875 14.78125 -65.296875 L 38.765625 -65.296875 C 41.640625 -65.296875 44.160156 -64.578125 46.328125 -63.140625 C 48.503906 -61.703125 50.171875 -59.832031 51.328125 -57.53125 C 52.492188 -55.238281 53.0625 -52.789062 53.03125 -50.1875 C 53.007812 -47.59375 52.265625 -45.128906 50.796875 -42.796875 C 49.316406 -40.410156 47.503906 -38.742188 45.359375 -37.796875 C 43.222656 -36.847656 40.773438 -36.3125 38.015625 -36.1875 C 37.710938 -36.1875 37.5625 -36.015625 37.5625 -35.671875 C 37.5625 -35.335938 37.710938 -35.113281 38.015625 -35 C 40.523438 -34.6875 42.972656 -34.851562 45.359375 -35.5 C 47.753906 -36.144531 49.867188 -37.414062 51.703125 -39.3125 C 52.929688 -36.613281 53.332031 -33.6875 52.90625 -30.53125 C 52.476562 -27.382812 51.253906 -24.800781 49.234375 -22.78125 C 47.878906 -21.25 46.3125 -20.160156 44.53125 -19.515625 C 42.757812 -18.867188 40.894531 -18.425781 38.9375 -18.1875 C 38.632812 -18.1875 38.484375 -18 38.484375 -17.625 C 38.484375 -17.257812 38.632812 -17.078125 38.9375 -17.078125 C 41.332031 -16.835938 43.660156 -17.019531 45.921875 -17.625 C 48.179688 -18.238281 50.171875 -19.554688 51.890625 -21.578125 C 52.378906 -20.785156 52.726562 -19.898438 52.9375 -18.921875 C 53.15625 -17.941406 53.265625 -16.472656 53.265625 -14.515625 C 53.265625 -13.109375 52.988281 -11.5625 52.4375 -9.875 C 51.882812 -8.1875 51.007812 -6.59375 49.8125 -5.09375 C 48.625 -3.59375 47.125 -2.367188 45.3125 -1.421875 C 43.507812 -0.472656 41.328125 0 38.765625 0 L 14.609375 0 C 11.910156 0 9.441406 -0.65625 7.203125 -1.96875 C 4.972656 -3.289062 3.210938 -5.050781 1.921875 -7.25 C 0.640625 -9.457031 0 -11.878906 0 -14.515625 Z M 0 -50.515625 "/></g></g></g></g></g></svg>